<svg width="19" height="20" viewBox="0 0 19 20" fill="none" xmlns="http://www.w3.org/2000/svg">
<path fill-rule="evenodd" clip-rule="evenodd" d="M2.75 1.5C2.05964 1.5 1.5 2.05964 1.5 2.75V4.75C1.5 5.44036 2.05964 6 2.75 6H13.75C14.4404 6 15 5.44036 15 4.75V2.75C15 2.05964 14.4404 1.5 13.75 1.5H2.75ZM16.5 3.10352V2.75C16.5 1.23122 15.2688 0 13.75 0H2.75C1.23122 0 0 1.23122 0 2.75V4.75C0 6.26878 1.23122 7.5 2.75 7.5H13.75C15.2688 7.5 16.5 6.26878 16.5 4.75C16.8036 4.97805 17 5.34105 17 5.75V8C17 8.69036 16.4404 9.25 15.75 9.25H10.75C9.23122 9.25 8 10.4812 8 12V12.3535C6.84575 12.68 6 13.7412 6 15V17.25C6 18.7688 7.23122 20 8.75 20C10.2688 20 11.5 18.7688 11.5 17.25V15C11.5 13.7412 10.6543 12.68 9.5 12.3535V12C9.5 11.3096 10.0596 10.75 10.75 10.75H15.75C17.2688 10.75 18.5 9.51878 18.5 8V5.75C18.5 4.49122 17.6543 3.42998 16.5 3.10352ZM8.75 13.75C8.05964 13.75 7.5 14.3096 7.5 15V17.25C7.5 17.9404 8.05964 18.5 8.75 18.5C9.44036 18.5 10 17.9404 10 17.25V15C10 14.3096 9.44036 13.75 8.75 13.75Z" fill="white"/>
</svg>
